<svg xmlns="http://www.w3.org/2000/svg" xmlns:xlink="http://www.w3.org/1999/xlink" width="1080" zoomAndPan="magnify" viewBox="0 0 810 809.999993" height="1080" preserveAspectRatio="xMidYMid meet" version="1.0"><defs><clipPath id="f5e6202323"><path d="M 0.078125 0.238281 L 27 0.238281 L 27 210 L 0.078125 210 Z M 0.078125 0.238281 " clip-rule="nonzero"/></clipPath><clipPath id="f326562673"><path d="M 68 0.238281 L 386 0.238281 L 386 210.71875 L 68 210.71875 Z M 68 0.238281 " clip-rule="nonzero"/></clipPath><clipPath id="8d8c4613f0"><path d="M 0.078125 0.238281 L 310 0.238281 L 310 210.71875 L 0.078125 210.71875 Z M 0.078125 0.238281 " clip-rule="nonzero"/></clipPath><clipPath id="19e42b6630"><path d="M 214 0.238281 L 532 0.238281 L 532 210.71875 L 214 210.71875 Z M 214 0.238281 " clip-rule="nonzero"/></clipPath><clipPath id="22ad77d43d"><path d="M 144 0.238281 L 456 0.238281 L 456 210.71875 L 144 210.71875 Z M 144 0.238281 " clip-rule="nonzero"/></clipPath><clipPath id="34032dbdc5"><path d="M 361 0.238281 L 573.921875 0.238281 L 573.921875 210.71875 L 361 210.71875 Z M 361 0.238281 " clip-rule="nonzero"/></clipPath><clipPath id="4d796ae4f3"><path d="M 291 0.238281 L 573.921875 0.238281 L 573.921875 210.71875 L 291 210.71875 Z M 291 0.238281 " clip-rule="nonzero"/></clipPath><clipPath id="38b0b7612e"><path d="M 0.078125 0.238281 L 241 0.238281 L 241 210.71875 L 0.078125 210.71875 Z M 0.078125 0.238281 " clip-rule="nonzero"/></clipPath><clipPath id="9eeb2d46ca"><path d="M 0.078125 0.238281 L 244 0.238281 L 244 210.71875 L 0.078125 210.71875 Z M 0.078125 0.238281 " clip-rule="nonzero"/></clipPath><clipPath id="b59aafff3a"><rect x="0" width="574" y="0" height="211"/></clipPath></defs><g transform="matrix(1, 0, 0, 1, 118, 300)"><g clip-path="url(#b59aafff3a)"><g clip-path="url(#f5e6202323)"><path stroke-linecap="round" transform="matrix(0, 1.067202, -1.067202, 0, 26.762652, 0.314155)" fill="none" stroke-linejoin="miter" d="M 12.498277 12.500703 L 183.689194 12.500703 " stroke="#d9381e" stroke-width="25" stroke-opacity="1" stroke-miterlimit="4"/></g><g clip-path="url(#f326562673)"><path stroke-linecap="round" transform="matrix(-0.733806, -0.774887, 0.774887, -0.733806, 264.772151, 146.478132)" fill="none" stroke-linejoin="miter" d="M 9.999991 10.000802 L 113.967779 9.999733 " stroke="#000000" stroke-width="20" stroke-opacity="1" stroke-miterlimit="4"/></g><g clip-path="url(#8d8c4613f0)"><path stroke-linecap="round" transform="matrix(0.697819, -0.807446, 0.807446, 0.697819, 103.731224, 132.590038)" fill="none" stroke-linejoin="miter" d="M 10.001906 9.999941 L 109.88584 9.997854 " stroke="#000000" stroke-width="20" stroke-opacity="1" stroke-miterlimit="4"/></g><g clip-path="url(#19e42b6630)"><path stroke-linecap="round" transform="matrix(-0.732637, -0.775992, 0.775992, -0.732637, 410.718681, 146.346473)" fill="none" stroke-linejoin="miter" d="M 9.998887 9.999083 L 113.634535 10.000992 " stroke="#000000" stroke-width="20" stroke-opacity="1" stroke-miterlimit="4"/></g><g clip-path="url(#22ad77d43d)"><path stroke-linecap="round" transform="matrix(0.697819, -0.807446, 0.807446, 0.697819, 250.201937, 132.230828)" fill="none" stroke-linejoin="miter" d="M 10.00082 9.998448 L 109.884377 10.001524 " stroke="#000000" stroke-width="20" stroke-opacity="1" stroke-miterlimit="4"/></g><g clip-path="url(#34032dbdc5)"><path stroke-linecap="round" transform="matrix(-0.733806, -0.774887, 0.774887, -0.733806, 558.405169, 146.43949)" fill="none" stroke-linejoin="miter" d="M 10.000409 10.000933 L 113.968197 9.999864 " stroke="#000000" stroke-width="20" stroke-opacity="1" stroke-miterlimit="4"/></g><g clip-path="url(#4d796ae4f3)"><path stroke-linecap="round" transform="matrix(0.697819, -0.807446, 0.807446, 0.697819, 396.966149, 132.341014)" fill="none" stroke-linejoin="miter" d="M 9.999491 10.001346 L 109.885818 10.002029 " stroke="#000000" stroke-width="20" stroke-opacity="1" stroke-miterlimit="4"/></g><g clip-path="url(#38b0b7612e)"><path stroke-linecap="round" transform="matrix(-0.689916, 0.814209, -0.814209, -0.689916, 134.329816, 25.949535)" fill="none" stroke-linejoin="miter" d="M 9.998947 10.000282 L 113.9682 10.000756 " stroke="#000000" stroke-width="20" stroke-opacity="1" stroke-miterlimit="4"/></g><g clip-path="url(#9eeb2d46ca)"><path stroke-linecap="round" transform="matrix(-0.754626, -0.754626, 0.754626, -0.754626, 122.76653, 202.380523)" fill="none" stroke-linejoin="miter" d="M 9.999899 9.9987 L 109.886425 10.001289 " stroke="#000000" stroke-width="20" stroke-opacity="1" stroke-miterlimit="4"/></g></g></g></svg>